<svg width="57" height="57" viewBox="0 0 57 57" fill="none" xmlns="http://www.w3.org/2000/svg">
<path d="M28.5 0C32.2793 0 35.9039 1.50133 38.5763 4.17373C41.2487 6.84612 42.75 10.4707 42.75 14.25C42.75 18.0293 41.2487 21.6539 38.5763 24.3263C35.9039 26.9987 32.2793 28.5 28.5 28.5C24.7207 28.5 21.0961 26.9987 18.4237 24.3263C15.7513 21.6539 14.25 18.0293 14.25 14.25C14.25 10.4707 15.7513 6.84612 18.4237 4.17373C21.0961 1.50133 24.7207 0 28.5 0ZM28.5 35.625C44.2463 35.625 57 42.0019 57 49.875V57H0V49.875C0 42.0019 12.7537 35.625 28.5 35.625Z" fill="#959191"/>
</svg>
