<svg width="81" height="69" viewBox="0 0 81 69" fill="none" xmlns="http://www.w3.org/2000/svg">
<path d="M62.2285 41.1255C62.2285 39.0224 60.4815 36.6112 56.4723 34.6066C52.5701 32.6555 47.0336 31.3898 40.8021 31.3898C34.5705 31.3898 29.034 32.6555 25.1318 34.6066C21.3729 36.4861 19.6023 38.723 19.3958 40.7281L19.3756 41.1255V44.9862H62.2285V41.1255ZM50.4785 11.7505C50.4785 9.15004 49.4448 6.66763 47.6234 4.84605C45.8038 3.02642 43.3487 2.01477 40.8021 2.01477C38.2554 2.01477 35.8004 3.02642 33.9807 4.84605C32.2733 6.55368 31.2581 8.84201 31.1377 11.264L31.1256 11.7505C31.1256 14.3509 32.1593 16.8333 33.9807 18.6549C35.8004 20.4746 38.2554 21.4862 40.8021 21.4862V23.5005L40.2189 23.4861C37.5085 23.3515 34.9272 22.2822 32.9156 20.4607L32.4931 20.0594C30.4272 17.9935 29.2109 15.237 29.0669 12.3327L29.0521 11.7505C29.0521 8.82879 30.1403 6.0193 32.0922 3.86383L32.4931 3.44156C34.6966 1.23801 37.6858 0.000488281 40.8021 0.000488281L41.3852 0.0149135C44.2892 0.159109 47.0453 1.37585 49.111 3.44156C51.3146 5.64511 52.5521 8.6342 52.5521 11.7505L52.5372 12.3327C52.3932 15.237 51.1769 17.9935 49.111 20.0594L48.6885 20.4607C46.5331 22.4124 43.7236 23.5005 40.8021 23.5005V21.4862C43.3487 21.4862 45.8038 20.4746 47.6234 18.6549C49.3308 16.9473 50.3461 14.659 50.4664 12.237L50.4785 11.7505ZM64.3021 47.0005H17.3021V41.1255C17.3021 34.6336 27.8183 29.3755 40.8021 29.3755L42.0116 29.3912C54.4327 29.7057 64.3021 34.8365 64.3021 41.1255V47.0005Z" fill="white"/>
<path d="M19.2114 62.1655H22.3574L20.8104 57.8365H20.7845L19.2114 62.1655ZM20.1344 56.7185H21.4994L25.1264 66.0005H23.7614L22.7474 63.2055H18.8214L17.7814 66.0005H16.5204L20.1344 56.7185ZM30.4231 61.4375C30.3365 61.0128 30.1545 60.6835 29.8771 60.4495C29.5998 60.2155 29.2271 60.0985 28.7591 60.0985C28.3605 60.0985 28.0268 60.1722 27.7581 60.3195C27.4895 60.4668 27.2728 60.6618 27.1081 60.9045C26.9521 61.1472 26.8395 61.4288 26.7701 61.7495C26.7008 62.0615 26.6661 62.3865 26.6661 62.7245C26.6661 63.0365 26.7008 63.3398 26.7701 63.6345C26.8481 63.9292 26.9651 64.1935 27.1211 64.4275C27.2771 64.6528 27.4808 64.8348 27.7321 64.9735C27.9835 65.1122 28.2825 65.1815 28.6291 65.1815C29.1751 65.1815 29.5998 65.0385 29.9031 64.7525C30.2151 64.4665 30.4058 64.0635 30.4751 63.5435H31.6061C31.4848 64.3755 31.1728 65.0168 30.6701 65.4675C30.1761 65.9182 29.5001 66.1435 28.6421 66.1435C28.1308 66.1435 27.6758 66.0612 27.2771 65.8965C26.8871 65.7318 26.5578 65.4978 26.2891 65.1945C26.0291 64.8912 25.8298 64.5315 25.6911 64.1155C25.5611 63.6908 25.4961 63.2272 25.4961 62.7245C25.4961 62.2218 25.5611 61.7538 25.6911 61.3205C25.8211 60.8785 26.0161 60.4972 26.2761 60.1765C26.5448 59.8472 26.8785 59.5915 27.2771 59.4095C27.6758 59.2188 28.1395 59.1235 28.6681 59.1235C29.0495 59.1235 29.4048 59.1712 29.7341 59.2665C30.0721 59.3532 30.3668 59.4918 30.6181 59.6825C30.8781 59.8732 31.0905 60.1158 31.2551 60.4105C31.4198 60.6965 31.5238 61.0388 31.5671 61.4375H30.4231ZM37.4056 61.4375C37.3189 61.0128 37.1369 60.6835 36.8596 60.4495C36.5822 60.2155 36.2096 60.0985 35.7416 60.0985C35.3429 60.0985 35.0092 60.1722 34.7406 60.3195C34.4719 60.4668 34.2552 60.6618 34.0906 60.9045C33.9346 61.1472 33.8219 61.4288 33.7526 61.7495C33.6832 62.0615 33.6486 62.3865 33.6486 62.7245C33.6486 63.0365 33.6832 63.3398 33.7526 63.6345C33.8306 63.9292 33.9476 64.1935 34.1036 64.4275C34.2596 64.6528 34.4632 64.8348 34.7146 64.9735C34.9659 65.1122 35.2649 65.1815 35.6116 65.1815C36.1576 65.1815 36.5822 65.0385 36.8856 64.7525C37.1976 64.4665 37.3882 64.0635 37.4576 63.5435H38.5886C38.4672 64.3755 38.1552 65.0168 37.6526 65.4675C37.1586 65.9182 36.4826 66.1435 35.6246 66.1435C35.1132 66.1435 34.6582 66.0612 34.2596 65.8965C33.8696 65.7318 33.5402 65.4978 33.2716 65.1945C33.0116 64.8912 32.8122 64.5315 32.6736 64.1155C32.5436 63.6908 32.4786 63.2272 32.4786 62.7245C32.4786 62.2218 32.5436 61.7538 32.6736 61.3205C32.8036 60.8785 32.9986 60.4972 33.2586 60.1765C33.5272 59.8472 33.8609 59.5915 34.2596 59.4095C34.6582 59.2188 35.1219 59.1235 35.6506 59.1235C36.0319 59.1235 36.3872 59.1712 36.7166 59.2665C37.0546 59.3532 37.3492 59.4918 37.6006 59.6825C37.8606 59.8732 38.0729 60.1158 38.2376 60.4105C38.4022 60.6965 38.5062 61.0388 38.5496 61.4375H37.4056ZM40.631 62.6465C40.631 63.0538 40.683 63.4178 40.787 63.7385C40.8996 64.0505 41.0513 64.3148 41.242 64.5315C41.4326 64.7395 41.6536 64.8998 41.905 65.0125C42.165 65.1252 42.438 65.1815 42.724 65.1815C43.01 65.1815 43.2786 65.1252 43.53 65.0125C43.79 64.8998 44.0153 64.7395 44.206 64.5315C44.3966 64.3148 44.544 64.0505 44.648 63.7385C44.7606 63.4178 44.817 63.0538 44.817 62.6465C44.817 62.2392 44.7606 61.8795 44.648 61.5675C44.544 61.2468 44.3966 60.9782 44.206 60.7615C44.0153 60.5448 43.79 60.3802 43.53 60.2675C43.2786 60.1548 43.01 60.0985 42.724 60.0985C42.438 60.0985 42.165 60.1548 41.905 60.2675C41.6536 60.3802 41.4326 60.5448 41.242 60.7615C41.0513 60.9782 40.8996 61.2468 40.787 61.5675C40.683 61.8795 40.631 62.2392 40.631 62.6465ZM39.461 62.6465C39.461 62.1525 39.5303 61.6932 39.669 61.2685C39.8076 60.8352 40.0156 60.4625 40.293 60.1505C40.5703 59.8298 40.9126 59.5785 41.32 59.3965C41.7273 59.2145 42.1953 59.1235 42.724 59.1235C43.2613 59.1235 43.7293 59.2145 44.128 59.3965C44.5353 59.5785 44.8776 59.8298 45.155 60.1505C45.4323 60.4625 45.6403 60.8352 45.779 61.2685C45.9176 61.6932 45.987 62.1525 45.987 62.6465C45.987 63.1405 45.9176 63.5998 45.779 64.0245C45.6403 64.4492 45.4323 64.8218 45.155 65.1425C44.8776 65.4545 44.5353 65.7015 44.128 65.8835C43.7293 66.0568 43.2613 66.1435 42.724 66.1435C42.1953 66.1435 41.7273 66.0568 41.32 65.8835C40.9126 65.7015 40.5703 65.4545 40.293 65.1425C40.0156 64.8218 39.8076 64.4492 39.669 64.0245C39.5303 63.5998 39.461 63.1405 39.461 62.6465ZM52.8538 66.0005H51.8138V64.9345H51.7878C51.5538 65.3505 51.2548 65.6582 50.8908 65.8575C50.5268 66.0482 50.0978 66.1435 49.6038 66.1435C49.1618 66.1435 48.7935 66.0872 48.4988 65.9745C48.2042 65.8532 47.9658 65.6842 47.7838 65.4675C47.6018 65.2508 47.4718 64.9952 47.3938 64.7005C47.3245 64.3972 47.2898 64.0635 47.2898 63.6995V59.2795H48.3948V63.8295C48.3948 64.2455 48.5162 64.5748 48.7588 64.8175C49.0015 65.0602 49.3352 65.1815 49.7598 65.1815C50.0978 65.1815 50.3882 65.1295 50.6308 65.0255C50.8822 64.9215 51.0902 64.7742 51.2548 64.5835C51.4195 64.3928 51.5408 64.1718 51.6188 63.9205C51.7055 63.6605 51.7488 63.3788 51.7488 63.0755V59.2795H52.8538V66.0005ZM54.5135 59.2795H55.5535V60.3455H55.5795C56.0388 59.5308 56.7668 59.1235 57.7635 59.1235C58.2055 59.1235 58.5738 59.1842 58.8685 59.3055C59.1631 59.4268 59.4015 59.5958 59.5835 59.8125C59.7655 60.0292 59.8911 60.2892 59.9605 60.5925C60.0385 60.8872 60.0775 61.2165 60.0775 61.5805V66.0005H58.9725V61.4505C58.9725 61.0345 58.8511 60.7052 58.6085 60.4625C58.3658 60.2198 58.0321 60.0985 57.6075 60.0985C57.2695 60.0985 56.9748 60.1505 56.7235 60.2545C56.4808 60.3585 56.2771 60.5058 56.1125 60.6965C55.9478 60.8872 55.8221 61.1125 55.7355 61.3725C55.6575 61.6238 55.6185 61.9012 55.6185 62.2045V66.0005H54.5135V59.2795ZM63.2711 59.2795H64.6101V60.2545H63.2711V64.4275C63.2711 64.5575 63.2798 64.6615 63.2971 64.7395C63.3231 64.8175 63.3664 64.8782 63.4271 64.9215C63.4878 64.9648 63.5701 64.9952 63.6741 65.0125C63.7868 65.0212 63.9298 65.0255 64.1031 65.0255H64.6101V66.0005H63.7651C63.4791 66.0005 63.2321 65.9832 63.0241 65.9485C62.8248 65.9052 62.6601 65.8315 62.5301 65.7275C62.4088 65.6235 62.3178 65.4762 62.2571 65.2855C62.1964 65.0948 62.1661 64.8435 62.1661 64.5315V60.2545H61.0221V59.2795H62.1661V57.2645H63.2711V59.2795Z" fill="white"/>
</svg>
