<svg width="81" height="69" viewBox="0 0 81 69" fill="none" xmlns="http://www.w3.org/2000/svg">
<rect x="26.0306" y="31.5576" width="29.5429" height="2" rx="1" fill="white"/>
<rect x="26.0306" y="22.1577" width="29.5429" height="2" rx="1" fill="white"/>
<rect x="26.0306" y="12.7576" width="29.5429" height="2" rx="1" fill="white"/>
<rect x="32.7449" y="18.129" width="8.05714" height="2.68571" rx="1.34286" transform="rotate(-90 32.7449 18.129)" fill="white"/>
<rect x="47.5164" y="27.5291" width="8.05714" height="2.68571" rx="1.34286" transform="rotate(-90 47.5164 27.5291)" fill="white"/>
<rect x="32.7449" y="36.9291" width="8.05714" height="2.68571" rx="1.34286" transform="rotate(-90 32.7449 36.9291)" fill="white"/>
<rect x="18.3021" y="1.00049" width="45" height="45" rx="1" stroke="white" stroke-width="2"/>
<path d="M8.9739 59.5135C8.83523 58.8548 8.52757 58.3608 8.0509 58.0315C7.5829 57.7022 7.0239 57.5375 6.3739 57.5375C5.81923 57.5375 5.34257 57.6415 4.9439 57.8495C4.5539 58.0575 4.2289 58.3392 3.9689 58.6945C3.71757 59.0412 3.53123 59.4398 3.4099 59.8905C3.28857 60.3412 3.2279 60.8092 3.2279 61.2945C3.2279 61.8232 3.28857 62.3258 3.4099 62.8025C3.53123 63.2705 3.71757 63.6822 3.9689 64.0375C4.2289 64.3842 4.55823 64.6615 4.9569 64.8695C5.35557 65.0775 5.83223 65.1815 6.3869 65.1815C6.79423 65.1815 7.1539 65.1165 7.4659 64.9865C7.78657 64.8478 8.05957 64.6615 8.2849 64.4275C8.5189 64.1848 8.7009 63.8988 8.8309 63.5695C8.9609 63.2402 9.0389 62.8848 9.0649 62.5035H10.2999C10.1786 63.6735 9.77557 64.5835 9.0909 65.2335C8.40623 65.8835 7.47023 66.2085 6.2829 66.2085C5.56357 66.2085 4.93523 66.0872 4.3979 65.8445C3.86057 65.5932 3.41423 65.2508 3.0589 64.8175C2.70357 64.3842 2.4349 63.8728 2.2529 63.2835C2.07957 62.6942 1.9929 62.0615 1.9929 61.3855C1.9929 60.7095 2.08823 60.0768 2.2789 59.4875C2.46957 58.8895 2.7469 58.3695 3.1109 57.9275C3.48357 57.4855 3.9429 57.1388 4.4889 56.8875C5.04357 56.6275 5.67623 56.4975 6.3869 56.4975C6.87223 56.4975 7.33157 56.5625 7.7649 56.6925C8.19823 56.8225 8.5839 57.0132 8.9219 57.2645C9.2599 57.5158 9.54157 57.8322 9.7669 58.2135C9.99223 58.5862 10.1396 59.0195 10.2089 59.5135H8.9739ZM12.4537 62.6465C12.4537 63.0538 12.5057 63.4178 12.6097 63.7385C12.7224 64.0505 12.8741 64.3148 13.0647 64.5315C13.2554 64.7395 13.4764 64.8998 13.7277 65.0125C13.9877 65.1252 14.2607 65.1815 14.5467 65.1815C14.8327 65.1815 15.1014 65.1252 15.3527 65.0125C15.6127 64.8998 15.8381 64.7395 16.0287 64.5315C16.2194 64.3148 16.3667 64.0505 16.4707 63.7385C16.5834 63.4178 16.6397 63.0538 16.6397 62.6465C16.6397 62.2392 16.5834 61.8795 16.4707 61.5675C16.3667 61.2468 16.2194 60.9782 16.0287 60.7615C15.8381 60.5448 15.6127 60.3802 15.3527 60.2675C15.1014 60.1548 14.8327 60.0985 14.5467 60.0985C14.2607 60.0985 13.9877 60.1548 13.7277 60.2675C13.4764 60.3802 13.2554 60.5448 13.0647 60.7615C12.8741 60.9782 12.7224 61.2468 12.6097 61.5675C12.5057 61.8795 12.4537 62.2392 12.4537 62.6465ZM11.2837 62.6465C11.2837 62.1525 11.3531 61.6932 11.4917 61.2685C11.6304 60.8352 11.8384 60.4625 12.1157 60.1505C12.3931 59.8298 12.7354 59.5785 13.1427 59.3965C13.5501 59.2145 14.0181 59.1235 14.5467 59.1235C15.0841 59.1235 15.5521 59.2145 15.9507 59.3965C16.3581 59.5785 16.7004 59.8298 16.9777 60.1505C17.2551 60.4625 17.4631 60.8352 17.6017 61.2685C17.7404 61.6932 17.8097 62.1525 17.8097 62.6465C17.8097 63.1405 17.7404 63.5998 17.6017 64.0245C17.4631 64.4492 17.2551 64.8218 16.9777 65.1425C16.7004 65.4545 16.3581 65.7015 15.9507 65.8835C15.5521 66.0568 15.0841 66.1435 14.5467 66.1435C14.0181 66.1435 13.5501 66.0568 13.1427 65.8835C12.7354 65.7015 12.3931 65.4545 12.1157 65.1425C11.8384 64.8218 11.6304 64.4492 11.4917 64.0245C11.3531 63.5998 11.2837 63.1405 11.2837 62.6465ZM19.1126 59.2795H20.1526V60.3455H20.1786C20.6379 59.5308 21.3659 59.1235 22.3626 59.1235C22.8046 59.1235 23.1729 59.1842 23.4676 59.3055C23.7622 59.4268 24.0006 59.5958 24.1826 59.8125C24.3646 60.0292 24.4902 60.2892 24.5596 60.5925C24.6376 60.8872 24.6766 61.2165 24.6766 61.5805V66.0005H23.5716V61.4505C23.5716 61.0345 23.4502 60.7052 23.2076 60.4625C22.9649 60.2198 22.6312 60.0985 22.2066 60.0985C21.8686 60.0985 21.5739 60.1505 21.3226 60.2545C21.0799 60.3585 20.8762 60.5058 20.7116 60.6965C20.5469 60.8872 20.4212 61.1125 20.3346 61.3725C20.2566 61.6238 20.2176 61.9012 20.2176 62.2045V66.0005H19.1126V59.2795ZM27.8702 59.2795H29.2092V60.2545H27.8702V64.4275C27.8702 64.5575 27.8789 64.6615 27.8962 64.7395C27.9222 64.8175 27.9655 64.8782 28.0262 64.9215C28.0869 64.9648 28.1692 64.9952 28.2732 65.0125C28.3859 65.0212 28.5289 65.0255 28.7022 65.0255H29.2092V66.0005H28.3642C28.0782 66.0005 27.8312 65.9832 27.6232 65.9485C27.4239 65.9052 27.2592 65.8315 27.1292 65.7275C27.0079 65.6235 26.9169 65.4762 26.8562 65.2855C26.7955 65.0948 26.7652 64.8435 26.7652 64.5315V60.2545H25.6212V59.2795H26.7652V57.2645H27.8702V59.2795ZM30.3978 59.2795H31.4378V60.6965H31.4638C31.7325 60.1505 32.0618 59.7475 32.4518 59.4875C32.8418 59.2275 33.3358 59.1062 33.9338 59.1235V60.2935C33.4918 60.2935 33.1148 60.3542 32.8028 60.4755C32.4908 60.5968 32.2395 60.7745 32.0488 61.0085C31.8581 61.2425 31.7195 61.5285 31.6328 61.8665C31.5461 62.1958 31.5028 62.5772 31.5028 63.0105V66.0005H30.3978V59.2795ZM35.3434 62.6465C35.3434 63.0538 35.3954 63.4178 35.4994 63.7385C35.6121 64.0505 35.7637 64.3148 35.9544 64.5315C36.1451 64.7395 36.3661 64.8998 36.6174 65.0125C36.8774 65.1252 37.1504 65.1815 37.4364 65.1815C37.7224 65.1815 37.9911 65.1252 38.2424 65.0125C38.5024 64.8998 38.7277 64.7395 38.9184 64.5315C39.1091 64.3148 39.2564 64.0505 39.3604 63.7385C39.4731 63.4178 39.5294 63.0538 39.5294 62.6465C39.5294 62.2392 39.4731 61.8795 39.3604 61.5675C39.2564 61.2468 39.1091 60.9782 38.9184 60.7615C38.7277 60.5448 38.5024 60.3802 38.2424 60.2675C37.9911 60.1548 37.7224 60.0985 37.4364 60.0985C37.1504 60.0985 36.8774 60.1548 36.6174 60.2675C36.3661 60.3802 36.1451 60.5448 35.9544 60.7615C35.7637 60.9782 35.6121 61.2468 35.4994 61.5675C35.3954 61.8795 35.3434 62.2392 35.3434 62.6465ZM34.1734 62.6465C34.1734 62.1525 34.2427 61.6932 34.3814 61.2685C34.5201 60.8352 34.7281 60.4625 35.0054 60.1505C35.2827 59.8298 35.625 59.5785 36.0324 59.3965C36.4397 59.2145 36.9077 59.1235 37.4364 59.1235C37.9737 59.1235 38.4417 59.2145 38.8404 59.3965C39.2477 59.5785 39.5901 59.8298 39.8674 60.1505C40.1447 60.4625 40.3527 60.8352 40.4914 61.2685C40.6301 61.6932 40.6994 62.1525 40.6994 62.6465C40.6994 63.1405 40.6301 63.5998 40.4914 64.0245C40.3527 64.4492 40.1447 64.8218 39.8674 65.1425C39.5901 65.4545 39.2477 65.7015 38.8404 65.8835C38.4417 66.0568 37.9737 66.1435 37.4364 66.1435C36.9077 66.1435 36.4397 66.0568 36.0324 65.8835C35.625 65.7015 35.2827 65.4545 35.0054 65.1425C34.7281 64.8218 34.5201 64.4492 34.3814 64.0245C34.2427 63.5998 34.1734 63.1405 34.1734 62.6465ZM42.0672 56.7185H43.1722V66.0005H42.0672V56.7185ZM49.9192 61.1645H52.3372C53.0392 61.1732 53.5506 61.0302 53.8712 60.7355C54.2006 60.4408 54.3652 60.0162 54.3652 59.4615C54.3652 58.9068 54.2006 58.4865 53.8712 58.2005C53.5506 57.9058 53.0392 57.7585 52.3372 57.7585H49.9192V61.1645ZM48.6842 56.7185H52.7532C53.6892 56.7185 54.3956 56.9612 54.8722 57.4465C55.3576 57.9232 55.6002 58.5948 55.6002 59.4615C55.6002 60.3282 55.3576 61.0042 54.8722 61.4895C54.3956 61.9748 53.6892 62.2132 52.7532 62.2045H49.9192V66.0005H48.6842V56.7185ZM62.8859 65.9745C62.6952 66.0872 62.4309 66.1435 62.0929 66.1435C61.8069 66.1435 61.5772 66.0655 61.4039 65.9095C61.2392 65.7448 61.1569 65.4805 61.1569 65.1165C60.8536 65.4805 60.4982 65.7448 60.0909 65.9095C59.6922 66.0655 59.2589 66.1435 58.7909 66.1435C58.4876 66.1435 58.1972 66.1088 57.9199 66.0395C57.6512 65.9702 57.4172 65.8618 57.2179 65.7145C57.0186 65.5672 56.8582 65.3765 56.7369 65.1425C56.6242 64.8998 56.5679 64.6095 56.5679 64.2715C56.5679 63.8902 56.6329 63.5782 56.7629 63.3355C56.8929 63.0928 57.0619 62.8978 57.2699 62.7505C57.4866 62.5945 57.7292 62.4775 57.9979 62.3995C58.2752 62.3215 58.5569 62.2565 58.8429 62.2045C59.1462 62.1438 59.4322 62.1005 59.7009 62.0745C59.9782 62.0398 60.2209 61.9965 60.4289 61.9445C60.6369 61.8838 60.8016 61.8015 60.9229 61.6975C61.0442 61.5848 61.1049 61.4245 61.1049 61.2165C61.1049 60.9738 61.0572 60.7788 60.9619 60.6315C60.8752 60.4842 60.7582 60.3715 60.6109 60.2935C60.4722 60.2155 60.3119 60.1635 60.1299 60.1375C59.9566 60.1115 59.7832 60.0985 59.6099 60.0985C59.1419 60.0985 58.7519 60.1895 58.4399 60.3715C58.1279 60.5448 57.9589 60.8785 57.9329 61.3725H56.8279C56.8452 60.9565 56.9319 60.6055 57.0879 60.3195C57.2439 60.0335 57.4519 59.8038 57.7119 59.6305C57.9719 59.4485 58.2666 59.3185 58.5959 59.2405C58.9339 59.1625 59.2936 59.1235 59.6749 59.1235C59.9782 59.1235 60.2772 59.1452 60.5719 59.1885C60.8752 59.2318 61.1482 59.3228 61.3909 59.4615C61.6336 59.5915 61.8286 59.7778 61.9759 60.0205C62.1232 60.2632 62.1969 60.5795 62.1969 60.9695V64.4275C62.1969 64.6875 62.2099 64.8782 62.2359 64.9995C62.2706 65.1208 62.3746 65.1815 62.5479 65.1815C62.6432 65.1815 62.7559 65.1598 62.8859 65.1165V65.9745ZM61.0919 62.5295C60.9532 62.6335 60.7712 62.7115 60.5459 62.7635C60.3206 62.8068 60.0822 62.8458 59.8309 62.8805C59.5882 62.9065 59.3412 62.9412 59.0899 62.9845C58.8386 63.0192 58.6132 63.0798 58.4139 63.1665C58.2146 63.2532 58.0499 63.3788 57.9199 63.5435C57.7986 63.6995 57.7379 63.9162 57.7379 64.1935C57.7379 64.3755 57.7726 64.5315 57.8419 64.6615C57.9199 64.7828 58.0152 64.8825 58.1279 64.9605C58.2492 65.0385 58.3879 65.0948 58.5439 65.1295C58.6999 65.1642 58.8646 65.1815 59.0379 65.1815C59.4019 65.1815 59.7139 65.1338 59.9739 65.0385C60.2339 64.9345 60.4462 64.8088 60.6109 64.6615C60.7756 64.5055 60.8969 64.3408 60.9749 64.1675C61.0529 63.9855 61.0919 63.8165 61.0919 63.6605V62.5295ZM63.9143 59.2795H64.9543V60.3455H64.9803C65.4397 59.5308 66.1677 59.1235 67.1643 59.1235C67.6063 59.1235 67.9747 59.1842 68.2693 59.3055C68.564 59.4268 68.8023 59.5958 68.9843 59.8125C69.1663 60.0292 69.292 60.2892 69.3613 60.5925C69.4393 60.8872 69.4783 61.2165 69.4783 61.5805V66.0005H68.3733V61.4505C68.3733 61.0345 68.252 60.7052 68.0093 60.4625C67.7667 60.2198 67.433 60.0985 67.0083 60.0985C66.6703 60.0985 66.3757 60.1505 66.1243 60.2545C65.8817 60.3585 65.678 60.5058 65.5133 60.6965C65.3487 60.8872 65.223 61.1125 65.1363 61.3725C65.0583 61.6238 65.0193 61.9012 65.0193 62.2045V66.0005H63.9143V59.2795ZM75.805 61.9965C75.7876 61.7365 75.727 61.4895 75.623 61.2555C75.5276 61.0215 75.3933 60.8222 75.22 60.6575C75.0553 60.4842 74.856 60.3498 74.622 60.2545C74.3966 60.1505 74.1453 60.0985 73.868 60.0985C73.582 60.0985 73.322 60.1505 73.088 60.2545C72.8626 60.3498 72.6676 60.4842 72.503 60.6575C72.3383 60.8308 72.2083 61.0345 72.113 61.2685C72.0176 61.4938 71.9613 61.7365 71.944 61.9965H75.805ZM76.871 63.8685C76.7236 64.6225 76.3986 65.1902 75.896 65.5715C75.3933 65.9528 74.7606 66.1435 73.998 66.1435C73.4606 66.1435 72.9926 66.0568 72.594 65.8835C72.204 65.7102 71.8746 65.4675 71.606 65.1555C71.3373 64.8435 71.1336 64.4708 70.995 64.0375C70.865 63.6042 70.7913 63.1318 70.774 62.6205C70.774 62.1092 70.852 61.6412 71.008 61.2165C71.164 60.7918 71.3806 60.4235 71.658 60.1115C71.944 59.7995 72.2776 59.5568 72.659 59.3835C73.049 59.2102 73.4736 59.1235 73.933 59.1235C74.531 59.1235 75.025 59.2492 75.415 59.5005C75.8136 59.7432 76.13 60.0552 76.364 60.4365C76.6066 60.8178 76.7713 61.2338 76.858 61.6845C76.9533 62.1352 76.9923 62.5642 76.975 62.9715H71.944C71.9353 63.2662 71.97 63.5478 72.048 63.8165C72.126 64.0765 72.2516 64.3105 72.425 64.5185C72.5983 64.7178 72.8193 64.8782 73.088 64.9995C73.3566 65.1208 73.673 65.1815 74.037 65.1815C74.505 65.1815 74.8863 65.0732 75.181 64.8565C75.4843 64.6398 75.6836 64.3105 75.779 63.8685H76.871ZM78.1854 56.7185H79.2904V66.0005H78.1854V56.7185Z" fill="white"/>
</svg>
