<svg width="56" height="56" viewBox="0 0 56 56" fill="none" xmlns="http://www.w3.org/2000/svg">
<path d="M34.2222 18.6667C33.3407 18.6667 32.6024 18.368 32.0071 17.7707C31.4118 17.1733 31.1132 16.435 31.1111 15.5556V3.11111C31.1111 2.22963 31.4098 1.49126 32.0071 0.896C32.6044 0.300741 33.3428 0.00207407 34.2222 0H52.8889C53.7704 0 54.5098 0.298667 55.1071 0.896C55.7044 1.49333 56.0021 2.2317 56 3.11111V15.5556C56 16.437 55.7013 17.1764 55.104 17.7738C54.5067 18.3711 53.7683 18.6687 52.8889 18.6667H34.2222ZM3.11111 31.1111C2.22963 31.1111 1.49126 30.8124 0.896 30.2151C0.300741 29.6178 0.00207407 28.8794 0 28V3.11111C0 2.22963 0.298667 1.49126 0.896 0.896C1.49333 0.300741 2.2317 0.00207407 3.11111 0H21.7778C22.6593 0 23.3987 0.298667 23.996 0.896C24.5933 1.49333 24.891 2.2317 24.8889 3.11111V28C24.8889 28.8815 24.5902 29.6209 23.9929 30.2182C23.3955 30.8155 22.6572 31.1132 21.7778 31.1111H3.11111ZM34.2222 56C33.3407 56 32.6024 55.7013 32.0071 55.104C31.4118 54.5067 31.1132 53.7683 31.1111 52.8889V28C31.1111 27.1185 31.4098 26.3801 32.0071 25.7849C32.6044 25.1896 33.3428 24.891 34.2222 24.8889H52.8889C53.7704 24.8889 54.5098 25.1875 55.1071 25.7849C55.7044 26.3822 56.0021 27.1206 56 28V52.8889C56 53.7704 55.7013 54.5098 55.104 55.1071C54.5067 55.7044 53.7683 56.0021 52.8889 56H34.2222ZM3.11111 56C2.22963 56 1.49126 55.7013 0.896 55.104C0.300741 54.5067 0.00207407 53.7683 0 52.8889V40.4444C0 39.563 0.298667 38.8246 0.896 38.2293C1.49333 37.6341 2.2317 37.3354 3.11111 37.3333H21.7778C22.6593 37.3333 23.3987 37.632 23.996 38.2293C24.5933 38.8267 24.891 39.565 24.8889 40.4444V52.8889C24.8889 53.7704 24.5902 54.5098 23.9929 55.1071C23.3955 55.7044 22.6572 56.0021 21.7778 56H3.11111Z" fill="white"/>
</svg>
