<svg width="81" height="69" viewBox="0 0 81 69" fill="none" xmlns="http://www.w3.org/2000/svg">
<path d="M34.6605 0C35.1746 1.76334e-05 35.6693 0.197819 36.0413 0.552734L43.5091 7.67773L42.1282 9.125L34.6605 2H19.3021V45H35.6136V24.6484H28.5452V22.6484H44.6819V24.6484H37.6136V45H62.3021V24.6484H55.4964V22.6484H62.3021V2H50.5784V0H62.3021C63.4066 0 64.3021 0.895429 64.3021 2V45C64.3018 46.1043 63.4065 47 62.3021 47H19.3021C18.1977 47 17.3023 46.1043 17.3021 45V2C17.3021 0.895431 18.1975 0 19.3021 0H34.6605Z" fill="white"/>
<path d="M12.4455 56.718H18.5425V57.758H13.6805V60.709H17.9445V61.749H13.6805V66H12.4455V56.718ZM19.7933 56.718H20.8983V66H19.7933V56.718ZM23.4161 62.646C23.4161 63.0533 23.4681 63.4173 23.5721 63.738C23.6848 64.05 23.8365 64.3143 24.0271 64.531C24.2178 64.739 24.4388 64.8993 24.6901 65.012C24.9501 65.1247 25.2231 65.181 25.5091 65.181C25.7951 65.181 26.0638 65.1247 26.3151 65.012C26.5751 64.8993 26.8005 64.739 26.9911 64.531C27.1818 64.3143 27.3291 64.05 27.4331 63.738C27.5458 63.4173 27.6021 63.0533 27.6021 62.646C27.6021 62.2387 27.5458 61.879 27.4331 61.567C27.3291 61.2463 27.1818 60.9777 26.9911 60.761C26.8005 60.5443 26.5751 60.3797 26.3151 60.267C26.0638 60.1543 25.7951 60.098 25.5091 60.098C25.2231 60.098 24.9501 60.1543 24.6901 60.267C24.4388 60.3797 24.2178 60.5443 24.0271 60.761C23.8365 60.9777 23.6848 61.2463 23.5721 61.567C23.4681 61.879 23.4161 62.2387 23.4161 62.646ZM22.2461 62.646C22.2461 62.152 22.3155 61.6927 22.4541 61.268C22.5928 60.8347 22.8008 60.462 23.0781 60.15C23.3555 59.8293 23.6978 59.578 24.1051 59.396C24.5125 59.214 24.9805 59.123 25.5091 59.123C26.0465 59.123 26.5145 59.214 26.9131 59.396C27.3205 59.578 27.6628 59.8293 27.9401 60.15C28.2175 60.462 28.4255 60.8347 28.5641 61.268C28.7028 61.6927 28.7721 62.152 28.7721 62.646C28.7721 63.14 28.7028 63.5993 28.5641 64.024C28.4255 64.4487 28.2175 64.8213 27.9401 65.142C27.6628 65.454 27.3205 65.701 26.9131 65.883C26.5145 66.0563 26.0465 66.143 25.5091 66.143C24.9805 66.143 24.5125 66.0563 24.1051 65.883C23.6978 65.701 23.3555 65.454 23.0781 65.142C22.8008 64.8213 22.5928 64.4487 22.4541 64.024C22.3155 63.5993 22.2461 63.14 22.2461 62.646ZM30.881 62.646C30.881 63.0533 30.933 63.4173 31.037 63.738C31.1496 64.05 31.3013 64.3143 31.492 64.531C31.6826 64.739 31.9036 64.8993 32.155 65.012C32.415 65.1247 32.688 65.181 32.974 65.181C33.26 65.181 33.5286 65.1247 33.78 65.012C34.04 64.8993 34.2653 64.739 34.456 64.531C34.6466 64.3143 34.794 64.05 34.898 63.738C35.0106 63.4173 35.067 63.0533 35.067 62.646C35.067 62.2387 35.0106 61.879 34.898 61.567C34.794 61.2463 34.6466 60.9777 34.456 60.761C34.2653 60.5443 34.04 60.3797 33.78 60.267C33.5286 60.1543 33.26 60.098 32.974 60.098C32.688 60.098 32.415 60.1543 32.155 60.267C31.9036 60.3797 31.6826 60.5443 31.492 60.761C31.3013 60.9777 31.1496 61.2463 31.037 61.567C30.933 61.879 30.881 62.2387 30.881 62.646ZM29.711 62.646C29.711 62.152 29.7803 61.6927 29.919 61.268C30.0576 60.8347 30.2656 60.462 30.543 60.15C30.8203 59.8293 31.1626 59.578 31.57 59.396C31.9773 59.214 32.4453 59.123 32.974 59.123C33.5113 59.123 33.9793 59.214 34.378 59.396C34.7853 59.578 35.1276 59.8293 35.405 60.15C35.6823 60.462 35.8903 60.8347 36.029 61.268C36.1676 61.6927 36.237 62.152 36.237 62.646C36.237 63.14 36.1676 63.5993 36.029 64.024C35.8903 64.4487 35.6823 64.8213 35.405 65.142C35.1276 65.454 34.7853 65.701 34.378 65.883C33.9793 66.0563 33.5113 66.143 32.974 66.143C32.4453 66.143 31.9773 66.0563 31.57 65.883C31.1626 65.701 30.8203 65.454 30.543 65.142C30.2656 64.8213 30.0576 64.4487 29.919 64.024C29.7803 63.5993 29.711 63.14 29.711 62.646ZM37.5008 59.279H38.5408V60.696H38.5668C38.8355 60.15 39.1648 59.747 39.5548 59.487C39.9448 59.227 40.4388 59.1057 41.0368 59.123V60.293C40.5948 60.293 40.2178 60.3537 39.9058 60.475C39.5938 60.5963 39.3425 60.774 39.1518 61.008C38.9612 61.242 38.8225 61.528 38.7358 61.866C38.6492 62.1953 38.6058 62.5767 38.6058 63.01V66H37.5008V59.279ZM46.9041 61.164H49.3221C50.0241 61.1727 50.5354 61.0297 50.8561 60.735C51.1854 60.4403 51.3501 60.0157 51.3501 59.461C51.3501 58.9063 51.1854 58.486 50.8561 58.2C50.5354 57.9053 50.0241 57.758 49.3221 57.758H46.9041V61.164ZM45.6691 56.718H49.7381C50.6741 56.718 51.3804 56.9607 51.8571 57.446C52.3424 57.9227 52.5851 58.5943 52.5851 59.461C52.5851 60.3277 52.3424 61.0037 51.8571 61.489C51.3804 61.9743 50.6741 62.2127 49.7381 62.204H46.9041V66H45.6691V56.718ZM53.9818 56.718H55.0868V66H53.9818V56.718ZM62.7526 65.974C62.5619 66.0867 62.2976 66.143 61.9596 66.143C61.6736 66.143 61.4439 66.065 61.2706 65.909C61.1059 65.7443 61.0236 65.48 61.0236 65.116C60.7203 65.48 60.3649 65.7443 59.9576 65.909C59.5589 66.065 59.1256 66.143 58.6576 66.143C58.3543 66.143 58.0639 66.1083 57.7866 66.039C57.5179 65.9697 57.2839 65.8613 57.0846 65.714C56.8853 65.5667 56.7249 65.376 56.6036 65.142C56.4909 64.8993 56.4346 64.609 56.4346 64.271C56.4346 63.8897 56.4996 63.5777 56.6296 63.335C56.7596 63.0923 56.9286 62.8973 57.1366 62.75C57.3533 62.594 57.5959 62.477 57.8646 62.399C58.1419 62.321 58.4236 62.256 58.7096 62.204C59.0129 62.1433 59.2989 62.1 59.5676 62.074C59.8449 62.0393 60.0876 61.996 60.2956 61.944C60.5036 61.8833 60.6683 61.801 60.7896 61.697C60.9109 61.5843 60.9716 61.424 60.9716 61.216C60.9716 60.9733 60.9239 60.7783 60.8286 60.631C60.7419 60.4837 60.6249 60.371 60.4776 60.293C60.3389 60.215 60.1786 60.163 59.9966 60.137C59.8233 60.111 59.6499 60.098 59.4766 60.098C59.0086 60.098 58.6186 60.189 58.3066 60.371C57.9946 60.5443 57.8256 60.878 57.7996 61.372H56.6946C56.7119 60.956 56.7986 60.605 56.9546 60.319C57.1106 60.033 57.3186 59.8033 57.5786 59.63C57.8386 59.448 58.1333 59.318 58.4626 59.24C58.8006 59.162 59.1603 59.123 59.5416 59.123C59.8449 59.123 60.1439 59.1447 60.4386 59.188C60.7419 59.2313 61.0149 59.3223 61.2576 59.461C61.5003 59.591 61.6953 59.7773 61.8426 60.02C61.9899 60.2627 62.0636 60.579 62.0636 60.969V64.427C62.0636 64.687 62.0766 64.8777 62.1026 64.999C62.1373 65.1203 62.2413 65.181 62.4146 65.181C62.5099 65.181 62.6226 65.1593 62.7526 65.116V65.974ZM60.9586 62.529C60.8199 62.633 60.6379 62.711 60.4126 62.763C60.1873 62.8063 59.9489 62.8453 59.6976 62.88C59.4549 62.906 59.2079 62.9407 58.9566 62.984C58.7053 63.0187 58.4799 63.0793 58.2806 63.166C58.0813 63.2527 57.9166 63.3783 57.7866 63.543C57.6653 63.699 57.6046 63.9157 57.6046 64.193C57.6046 64.375 57.6393 64.531 57.7086 64.661C57.7866 64.7823 57.8819 64.882 57.9946 64.96C58.1159 65.038 58.2546 65.0943 58.4106 65.129C58.5666 65.1637 58.7313 65.181 58.9046 65.181C59.2686 65.181 59.5806 65.1333 59.8406 65.038C60.1006 64.934 60.3129 64.8083 60.4776 64.661C60.6423 64.505 60.7636 64.3403 60.8416 64.167C60.9196 63.985 60.9586 63.816 60.9586 63.66V62.529ZM63.781 59.279H64.821V60.345H64.847C65.3064 59.5303 66.0344 59.123 67.031 59.123C67.473 59.123 67.8414 59.1837 68.136 59.305C68.4307 59.4263 68.669 59.5953 68.851 59.812C69.033 60.0287 69.1587 60.2887 69.228 60.592C69.306 60.8867 69.345 61.216 69.345 61.58V66H68.24V61.45C68.24 61.034 68.1187 60.7047 67.876 60.462C67.6334 60.2193 67.2997 60.098 66.875 60.098C66.537 60.098 66.2424 60.15 65.991 60.254C65.7484 60.358 65.5447 60.5053 65.38 60.696C65.2154 60.8867 65.0897 61.112 65.003 61.372C64.925 61.6233 64.886 61.9007 64.886 62.204V66H63.781V59.279Z" fill="white"/>
</svg>
