<svg width="48" height="48" viewBox="0 0 48 48" fill="none" xmlns="http://www.w3.org/2000/svg">
<path d="M17.9951 0.515869C18.5093 0.515887 19.004 0.713689 19.376 1.0686L26.8438 8.1936L25.4629 9.64087L17.9951 2.51587H2.63672V45.5159H18.9482V25.1643H11.8799V23.1643H28.0166V25.1643H20.9482V45.5159H45.6367V25.1643H38.8311V23.1643H45.6367V2.51587H33.9131V0.515869H45.6367C46.7413 0.515869 47.6367 1.4113 47.6367 2.51587V45.5159C47.6365 46.6202 46.7411 47.5159 45.6367 47.5159H2.63672C1.53231 47.5159 0.636983 46.6202 0.636719 45.5159V2.51587C0.636719 1.4113 1.53215 0.515869 2.63672 0.515869H17.9951Z" fill="white"/>
</svg>
