<?xml version="1.0" encoding="UTF-8"?>
<svg version="1.1" xmlns="http://www.w3.org/2000/svg" width="400" height="200">
<path d="M0 0 C0 11.22 0 22.44 0 34 C15.51 34 31.02 34 47 34 C47 47.2 47 60.4 47 74 C31.16 74 15.32 74 -1 74 C-1.33 61.79 -1.66 49.58 -2 37 C-4.97 39.64 -7.94 42.28 -11 45 C-12.82131645 46.51456842 -14.65252213 48.01745603 -16.5 49.5 C-20.6618043 52.87568571 -24.68322034 56.36358655 -28.6640625 59.94921875 C-32.22882995 63.07882228 -35.92223515 66.04567359 -39.6171875 69.01953125 C-41.94342525 70.80806071 -41.94342525 70.80806071 -43.24324036 72.60249329 C-45.90944085 74.72346248 -48.12530471 74.35951986 -51.4909668 74.34057617 C-52.1448941 74.34101425 -52.79882141 74.34145233 -53.4725647 74.34190369 C-55.63175423 74.33981539 -57.79016505 74.31648388 -59.94921875 74.29296875 C-61.44708329 74.28737291 -62.94495332 74.28310275 -64.44282532 74.28010559 C-68.38358746 74.2686558 -72.32401745 74.23918778 -76.26464844 74.20599365 C-80.99361558 74.16989739 -85.72269384 74.15613222 -90.45175934 74.13863373 C-97.63473718 74.10955014 -104.81698634 74.0520648 -112 74 C-112 60.8 -112 47.6 -112 34 C-107.43542969 34.020625 -102.87085938 34.04125 -98.16796875 34.0625 C-95.25570346 34.05776498 -92.34382005 34.05066507 -89.43164062 34.03515625 C-84.82099374 34.01082402 -80.21145182 33.99469315 -75.60083008 34.03076172 C-71.87837109 34.05933001 -68.15784285 34.04831495 -64.43548012 34.01119995 C-63.02391242 34.003821 -61.61219731 34.01009877 -60.20076561 34.03103638 C-49.64075854 34.1746527 -43.87031469 31.97772408 -36 25 C-34.637708 23.96829197 -33.26729667 22.94704328 -31.8828125 21.9453125 C-30.62948565 21.00617201 -29.37688101 20.06606693 -28.125 19.125 C-27.45299561 18.62105713 -26.78099121 18.11711426 -26.08862305 17.59790039 C-22.79654678 15.12389051 -19.51719168 12.63529743 -16.26171875 10.11328125 C-15.67825684 9.66130371 -15.09479492 9.20932617 -14.49365234 8.74365234 C-12.9165674 7.51835399 -11.3429251 6.28862822 -9.76953125 5.05859375 C-2.96394687 0 -2.96394687 0 0 0 Z " fill="#364463" transform="translate(122,63)"/>
<path d="M0 0 C5.28 0 10.56 0 16 0 C16.33 2.97 16.66 5.94 17 9 C17.23589844 8.3503125 17.47179687 7.700625 17.71484375 7.03125 C19.19935747 3.95787975 20.3307119 2.17011854 23 0 C28.5440433 -1.21029002 34.40028151 -0.5050971 40 0 C38.58714502 4.56364663 36.9959517 7.29911849 34 11 C33.16587869 12.28593701 32.37561615 13.60109895 31.625 14.9375 C31.26664062 15.56527344 30.90828125 16.19304687 30.5390625 16.83984375 C29.72805896 20.08973475 30.67271526 21.96675275 32 25 C33.28720148 26.92158911 34.64449254 28.79780346 36.0625 30.625 C40.42995115 36.26398757 40.42995115 36.26398757 41 40 C29.09100953 41.20563458 29.09100953 41.20563458 24 40 C20.56036262 37.15030042 18.74207718 34.08185449 17 30 C16.67 33.3 16.34 36.6 16 40 C10.72 40 5.44 40 0 40 C0 26.8 0 13.6 0 0 Z " fill="#364463" transform="translate(305,97)"/>
<path d="M0 0 C5.28 0 10.56 0 16 0 C16.33 3.3 16.66 6.6 17 10 C18.65 6.7 20.3 3.4 22 0 C27.94 0 33.88 0 40 0 C38.04944357 4.87639106 35.59886357 8.89450863 32.65820312 13.18359375 C30.97476657 15.78054669 29.9832999 17.48988785 30.0859375 20.625 C31.07443679 23.19340841 32.2414195 25.24082602 33.8125 27.5 C34.34746094 28.27601562 34.88242188 29.05203125 35.43359375 29.8515625 C36.68748469 31.57136304 38.019481 33.23410858 39.375 34.875 C41 37 41 37 41 40 C38.26843041 40.16262928 35.54657878 40.28110686 32.8125 40.375 C32.04357422 40.42527344 31.27464844 40.47554687 30.48242188 40.52734375 C24.87757946 40.67167446 24.87757946 40.67167446 22.40380859 38.77832031 C20.08507833 36.07214155 18.591714 33.18342799 17 30 C16.67 33.3 16.34 36.6 16 40 C10.72 40 5.44 40 0 40 C0 26.8 0 13.6 0 0 Z " fill="#364463" transform="translate(181,97)"/>
<path d="M0 0 C0.886875 0.763125 1.77375 1.52625 2.6875 2.3125 C3.24566406 2.72628906 3.80382812 3.14007813 4.37890625 3.56640625 C8.14919751 6.91680429 9.10285657 10.08815121 9.45288086 15.11523438 C9.57867172 20.81427722 9.37562262 25.54943945 5.5 30.0625 C3.70703125 31.734375 3.70703125 31.734375 1.6875 33.3125 C0.96691406 34.02792969 0.24632812 34.74335938 -0.49609375 35.48046875 C-4.421507 38.0338929 -7.60037524 37.93902391 -12.1875 37.875 C-13.35345703 37.91077148 -13.35345703 37.91077148 -14.54296875 37.94726562 C-20.46759931 37.93232958 -23.98755286 36.33489412 -28.3125 32.3125 C-33.25510257 26.88228641 -34.61451284 21.97310453 -34.53125 14.8125 C-34.23300164 11.40394731 -33.17089195 9.16645907 -31.3125 6.3125 C-30.77625 5.44625 -30.24 4.58 -29.6875 3.6875 C-21.49425157 -4.50574843 -10.00048826 -5.09458836 0 0 Z M-14.3125 8.3125 C-17.27931758 12.94073543 -17.51225858 16.01036373 -16.83203125 21.26171875 C-16.3605115 23.60164722 -16.3605115 23.60164722 -14.3125 26.3125 C-10.68921945 25.9825026 -10.68921945 25.9825026 -8 23.75 C-6.6384841 18.92280727 -6.65905031 14.88077925 -8.5625 10.3125 C-9.14 9.6525 -9.7175 8.9925 -10.3125 8.3125 C-11.6325 8.3125 -12.9525 8.3125 -14.3125 8.3125 Z " fill="#364463" transform="translate(381.3125,99.6875)"/>
<path d="M0 0 C6.27 0 12.54 0 19 0 C22.64301175 8.67036796 26.21803395 17.32778578 29.375 26.1875 C29.62523926 26.88093506 29.87547852 27.57437012 30.13330078 28.28881836 C31.52661707 32.26301342 32.29781046 35.78686275 33 40 C27.39 40 21.78 40 16 40 C15.505 37.525 15.505 37.525 15 35 C12.03 35 9.06 35 6 35 C5.67 36.65 5.34 38.3 5 40 C-0.61 40 -6.22 40 -12 40 C-12 32.17363344 -12 32.17363344 -9.9375 27.3125 C-7.49932709 21.32916762 -5.30441388 15.29205119 -3.1875 9.1875 C-2.71654907 7.83362183 -2.71654907 7.83362183 -2.23608398 6.45239258 C-1.48897493 4.30220153 -0.74422998 2.15118926 0 0 Z M10 16 C9.67 18.97 9.34 21.94 9 25 C9.99 24.67 10.98 24.34 12 24 C11.67 21.36 11.34 18.72 11 16 C10.67 16 10.34 16 10 16 Z " fill="#364463" transform="translate(235,97)"/>
<path d="M0 0 C11.22 0 22.44 0 34 0 C34 3.63 34 7.26 34 11 C31.36 11 28.72 11 26 11 C26 20.57 26 30.14 26 40 C20.39 40 14.78 40 9 40 C9 30.43 9 20.86 9 11 C6.03 11 3.06 11 0 11 C0 7.37 0 3.74 0 0 Z " fill="#374464" transform="translate(266,97)"/>
<path d="" fill="#364463" transform="translate(0,0)"/>
<path d="" fill="#364464" transform="translate(0,0)"/>
<path d="" fill="#374464" transform="translate(0,0)"/>
<path d="" fill="#364564" transform="translate(0,0)"/>
<path d="" fill="#374464" transform="translate(0,0)"/>
<path d="" fill="#364564" transform="translate(0,0)"/>
</svg>
