<svg width="2000" height="287" viewBox="0 0 2000 287" fill="none" xmlns="http://www.w3.org/2000/svg">
<path d="M1435.59 286.803V3.4632H1527.67V109.716L1573.72 3.4632H1681.15L1604.41 145.133L1681.15 286.803H1589.06L1527.67 180.551V286.803H1435.59Z" fill="white"/>
<path d="M1235.9 286.803H1311.26V210.173L1377.2 124.527H1311.26L1235.9 210.173L1235.9 286.803Z" fill="white"/>
<path d="M1235.9 124.527H1311.26V38.881H1235.9V124.527Z" fill="white"/>
<path d="M1171.14 74.2982V3.4632H1397.81V74.2982H1171.14Z" fill="white"/>
<path d="M944.466 286.803V3.4632H1054.83C1075.14 3.4632 1092.86 6.90376 1107.97 13.7849C1123.2 20.666 1134.97 30.7178 1143.27 43.9403C1151.69 57.0279 1155.9 72.9489 1155.9 91.7033C1155.9 105.466 1153.67 117.541 1149.21 127.93C1144.75 138.319 1138.81 147.09 1131.38 154.24C1123.95 161.391 1115.77 166.991 1106.85 171.038L1171.14 286.803H1082.7L1034.02 189.253H1019.53V286.803H944.466ZM1019.53 124.895H1047.03C1057.31 124.895 1065.36 122.871 1071.18 118.823C1077.12 114.775 1080.1 107.624 1080.1 97.3701C1080.1 86.981 1077.12 79.8301 1071.18 75.9173C1065.36 71.8696 1057.43 69.8457 1047.4 69.8457H1019.53V124.895Z" fill="white"/>
<path d="M604.458 286.803L707.353 3.4632H804.196L906.687 286.803H814.687L798.95 236.207H709.775L694.038 286.803H604.458ZM727.125 168.61H781.196L754.564 87.6556L727.125 168.61Z" fill="white"/>
<path d="M264.451 286.803V3.4632H342.517L444.325 175.896L411.73 176.301L507.503 3.4632H585.569V286.803H507.1L508.71 106.275L522.794 111.537L451.166 238.635H398.854L323.202 111.537L337.286 106.275L338.895 286.803H264.451Z" fill="white"/>
<path d="M114.978 286.803C93.3355 286.803 72.2722 283.499 51.7886 276.892C31.4339 270.285 14.171 260.762 0 248.325L36.1361 190.413C41.418 196.632 48.5035 202.073 57.3926 206.737C66.2817 211.401 75.815 215.029 85.9923 217.62C96.1697 220.211 105.832 221.507 114.978 221.507C125.285 221.507 133.787 220.017 140.486 217.037C147.185 214.057 150.535 209.847 150.535 204.405C150.535 199.093 147.958 194.753 142.805 191.385C137.652 187.887 128.119 184.324 114.206 180.696L94.1085 175.255C64.7358 167.222 43.7369 156.081 31.1118 141.829C18.4867 127.449 12.1742 110.477 12.1742 90.9138C12.1742 78.6059 14.8152 67.1402 20.0971 56.5165C25.5078 45.8929 32.9798 36.6296 42.5131 28.7267C52.1751 20.6942 63.5119 14.4755 76.5235 10.0706C89.5351 5.66565 103.642 3.4632 118.843 3.4632C140.744 3.4632 161.099 6.70211 179.908 13.1799C198.845 19.5282 213.918 28.338 225.126 39.6094L187.637 95.9665C183.128 90.6547 177.331 85.9906 170.245 81.9744C163.16 77.8286 155.366 74.5897 146.863 72.2577C138.361 69.9256 129.794 68.7596 121.162 68.7596C114.334 68.7596 108.408 69.6018 103.384 71.286C98.3598 72.8407 94.4305 75.0431 91.5963 77.8933C88.8909 80.614 87.5382 83.7882 87.5382 87.4157C87.5382 90.6546 88.6977 93.3106 91.0166 95.3835C93.3355 97.4564 97.1359 99.4645 102.418 101.408C107.829 103.351 115.107 105.683 124.254 108.404L143.965 114.234C173.337 122.914 194.465 133.603 207.348 146.299C220.231 158.996 226.672 175.385 226.672 195.466C226.672 213.474 222.034 229.345 212.759 243.078C203.483 256.811 190.471 267.564 173.724 275.337C156.976 282.981 137.394 286.803 114.978 286.803Z" fill="white"/>
<path d="M1965.57 52.1755C1981.35 70.1551 1992.22 91.5519 1997.1 114.525C2002.93 142.006 1999.94 170.504 1988.5 196.391C1977.06 222.274 1957.69 244.392 1932.85 259.958C1908 275.524 1878.78 283.845 1848.9 283.846C1819.01 283.846 1789.78 275.525 1764.93 259.958C1740.08 244.392 1720.71 222.274 1709.27 196.391C1697.84 170.504 1694.85 142.006 1700.68 114.525C1705.55 91.561 1716.42 70.1693 1732.18 52.194L1785.85 102.443C1780.26 110.227 1776.31 118.979 1774.33 128.268C1771.4 142.091 1772.92 156.42 1778.67 169.441C1784.42 182.46 1794.15 193.597 1806.65 201.427C1819.15 209.257 1833.86 213.436 1848.9 213.436C1863.93 213.435 1878.62 209.256 1891.12 201.427C1903.62 193.597 1913.37 182.462 1919.12 169.441C1924.87 156.421 1926.37 142.09 1923.44 128.268C1921.47 119.008 1917.54 110.283 1911.98 102.516L1965.57 52.1755Z" fill="white"/>
<path d="M1848.9 94.948C1862.8 94.9499 1875.39 100.228 1884.5 108.765L1848.9 142.171L1813.28 108.765C1822.39 100.225 1834.99 94.9481 1848.9 94.948Z" fill="white"/>
<path d="M1854.08 47.8538C1879.83 49.0792 1903.01 59.382 1920.1 75.3946L1895.92 98.0655C1884.04 87.541 1867.75 80.7846 1848.9 80.781C1830.03 80.7826 1813.72 87.5309 1801.84 98.0655L1777.66 75.3762C1795.89 58.2881 1821.08 47.7264 1848.9 47.7247L1854.08 47.8538Z" fill="white"/>
<path d="M1856.52 0.667423C1873.76 1.48399 1890.75 5.08641 1906.73 11.2927C1924.59 18.2307 1940.85 28.3279 1954.65 41.0102C1955.01 41.337 1955.35 41.6762 1955.7 42.0063L1931.54 64.6587C1910.55 45.6047 1881.68 33.5596 1848.9 33.5577C1816.1 33.5577 1787.23 45.6159 1766.24 64.6771L1742.06 42.0063C1742.56 41.5362 1743.06 41.0677 1743.57 40.6043C1757.28 28.1093 1773.39 18.1571 1791.07 11.2927C1809.4 4.1738 1829.05 0.501396 1848.9 0.501404L1856.52 0.667423Z" fill="white"/>
</svg>
