<svg width="107" height="16" viewBox="0 0 107 16" fill="none" xmlns="http://www.w3.org/2000/svg">
<path d="M76.6594 15.1568V0.15683H81.5344V5.78183L83.9719 0.15683H89.6594L85.5969 7.65683L89.6594 15.1568H84.7844L81.5344 9.53183V15.1568H76.6594Z" fill="#374F71"/>
<path d="M66.088 15.1568H70.0776V11.1L73.5685 6.56592H70.0776L66.088 11.1L66.088 15.1568Z" fill="#374F71"/>
<path d="M66.088 6.56592H70.0776V2.03182H66.088V6.56592Z" fill="#374F71"/>
<path d="M62.6594 3.90683V0.15683H74.6594V3.90683H62.6594Z" fill="#374F71"/>
<path d="M50.6594 15.1568V0.15683H56.502C57.5774 0.15683 58.5151 0.338973 59.3151 0.703259C60.1217 1.06754 60.7446 1.59969 61.1839 2.29969C61.6298 2.99254 61.8528 3.8354 61.8528 4.82826C61.8528 5.55683 61.7348 6.19612 61.4987 6.74612C61.2626 7.29612 60.9479 7.7604 60.5544 8.13897C60.161 8.51754 59.7282 8.81397 59.2561 9.02826L62.6594 15.1568H57.9774L55.4003 9.99254H54.6331V15.1568H50.6594ZM54.6331 6.5854H56.0889C56.6331 6.5854 57.0594 6.47826 57.3676 6.26397C57.6823 6.04969 57.8397 5.67112 57.8397 5.12826C57.8397 4.57826 57.6823 4.19969 57.3676 3.99254C57.0594 3.77826 56.6397 3.67112 56.1085 3.67112H54.6331V6.5854Z" fill="#374F71"/>
<path d="M32.6594 15.1568L38.1066 0.15683H43.2335L48.6594 15.1568H43.7889L42.9558 12.4783H38.2348L37.4017 15.1568H32.6594ZM39.1533 8.89969H42.0158L40.606 4.61397L39.1533 8.89969Z" fill="#374F71"/>
<path d="M14.6594 15.1568V0.15683H18.7922L24.1819 9.2854L22.4563 9.30683L27.5265 0.15683H31.6594V15.1568H27.5052L27.5904 5.59969L28.336 5.87826L24.5441 12.6068H21.7746L17.7696 5.87826L18.5152 5.59969L18.6005 15.1568H14.6594Z" fill="#374F71"/>
<path d="M6.74631 15.1568C5.60053 15.1568 4.48544 14.9819 3.40104 14.6321C2.32346 14.2823 1.40957 13.7782 0.659355 13.1198L2.5724 10.0539C2.85202 10.3832 3.22713 10.6712 3.69772 10.9181C4.16831 11.1651 4.673 11.3571 5.21179 11.4943C5.75057 11.6315 6.26208 11.7 6.74631 11.7C7.29192 11.7 7.74205 11.6212 8.0967 11.4634C8.45134 11.3057 8.62867 11.0828 8.62867 10.7947C8.62867 10.5135 8.49226 10.2837 8.21946 10.1054C7.94665 9.9202 7.44196 9.73159 6.70539 9.53955L5.64145 9.25148C4.08647 8.82624 2.97479 8.23639 2.30641 7.48193C1.63804 6.72062 1.30386 5.82212 1.30386 4.78646C1.30386 4.13488 1.44367 3.52789 1.72329 2.96547C2.00974 2.40306 2.40531 1.91266 2.90999 1.49428C3.4215 1.06904 4.02167 0.739821 4.71051 0.506624C5.39934 0.273428 6.14614 0.15683 6.95092 0.15683C8.11034 0.15683 9.18791 0.328298 10.1837 0.671234C11.1862 1.00731 11.9842 1.4737 12.5775 2.07041L10.5929 5.05395C10.3542 4.77274 10.0472 4.52583 9.67214 4.31321C9.29704 4.09373 8.88442 3.92226 8.43429 3.79881C7.98416 3.67535 7.53063 3.61362 7.07368 3.61362C6.71221 3.61362 6.39849 3.6582 6.1325 3.74737C5.86652 3.82967 5.6585 3.94627 5.50846 4.09716C5.36524 4.24119 5.29363 4.40923 5.29363 4.60127C5.29363 4.77274 5.35501 4.91335 5.47777 5.02309C5.60053 5.13282 5.80173 5.23913 6.08135 5.34202C6.3678 5.4449 6.75313 5.56835 7.23736 5.71238L8.28084 6.02103C9.83583 6.48056 10.9543 7.0464 11.6363 7.71856C12.3183 8.39071 12.6594 9.25834 12.6594 10.3214C12.6594 11.2748 12.4138 12.115 11.9228 12.842C11.4317 13.569 10.7429 14.1383 9.85629 14.5498C8.96967 14.9545 7.93301 15.1568 6.74631 15.1568Z" fill="#374F71"/>
<path fill-rule="evenodd" clip-rule="evenodd" d="M92.3602 2.73658L95.2001 5.39506C94.9045 5.80727 94.6971 6.2722 94.5928 6.76406C94.4375 7.49586 94.5172 8.25438 94.8218 8.94371C95.1263 9.63305 95.6421 10.2222 96.3038 10.6368C96.9656 11.0513 97.7436 11.2725 98.5395 11.2725C99.3353 11.2725 100.113 11.0513 100.775 10.6368C101.437 10.2222 101.953 9.63305 102.257 8.94371C102.562 8.25438 102.641 7.49586 102.486 6.76406C102.382 6.27371 102.176 5.81011 101.882 5.39885L104.718 2.73533C105.553 3.68721 106.128 4.82064 106.386 6.03686C106.694 7.49172 106.536 8.99972 105.931 10.3702C105.325 11.7406 104.3 12.912 102.984 13.7361C101.668 14.5602 100.122 15 98.5395 15C96.9572 15 95.4105 14.5602 94.0949 13.7361C92.7793 12.912 91.7539 11.7406 91.1484 10.3702C90.5429 8.99972 90.3845 7.49172 90.6932 6.03686C90.9511 4.82117 91.5255 3.68821 92.3602 2.73658Z" fill="#374F71"/>
<path fill-rule="evenodd" clip-rule="evenodd" d="M103.969 1.99148C104.046 2.05849 104.122 2.12691 104.196 2.19669L102.916 3.39659C101.805 2.38734 100.276 1.75003 98.5395 1.75003C96.8032 1.75003 95.2738 2.38734 94.1626 3.39659L92.8827 2.1967C92.9629 2.12154 93.0447 2.04798 93.1282 1.97605C93.8171 1.38292 94.6123 0.907067 95.4781 0.570872C96.377 0.221776 97.3358 0.029597 98.3071 0.00313432C98.3843 0.00106983 98.4618 3.05176e-05 98.5395 3.05176e-05C100.635 3.05176e-05 102.542 0.755373 103.969 1.99148ZM102.311 3.96447C101.346 3.05964 100.012 2.5 98.5395 2.5C97.0667 2.5 95.7334 3.05963 94.7683 3.96442L96.0486 5.1647C96.6775 4.60709 97.5408 4.25 98.5395 4.25C99.5381 4.25 100.402 4.6071 101.03 5.16474L102.311 3.96447ZM100.425 5.73222C99.9425 5.27983 99.2759 5.00003 98.5395 5.00003C97.8032 5.00003 97.1365 5.27984 96.6539 5.73224L98.5395 7.49997L100.425 5.73222Z" fill="#374F71"/>
</svg>
