<svg width="452" height="65" viewBox="0 0 452 65" fill="none" xmlns="http://www.w3.org/2000/svg">
<path d="M323.874 64.063V0H344.895V24.0236L355.405 0H379.929L362.412 32.0315L379.929 64.063H358.908L344.895 40.0394V64.063H323.874Z" fill="white"/>
<path d="M279.387 64.063H296.471V46.8362L311.419 27.5827H296.471L279.387 46.8362L279.387 64.063Z" fill="white"/>
<path d="M279.387 27.5825H296.293V8.00771H279.387V27.5825Z" fill="white"/>
<path d="M264.26 16.0157V0H315.866V16.0157H264.26Z" fill="white"/>
<path d="M213.543 64.063V0H238.236C242.781 0 246.744 0.777909 250.125 2.33372C253.534 3.88954 256.167 6.16225 258.024 9.15186C259.908 12.111 260.851 15.7107 260.851 19.951C260.851 23.0627 260.352 25.793 259.354 28.142C258.356 30.4909 257.026 32.4738 255.363 34.0907C253.7 35.7075 251.871 36.9735 249.876 37.8887L264.26 64.063H244.472L233.58 42.007H230.338V64.063H213.543ZM230.338 27.4556H236.49C238.79 27.4556 240.592 26.998 241.894 26.0828C243.225 25.1676 243.89 23.5508 243.89 21.2323C243.89 18.8833 243.225 17.2665 241.894 16.3818C240.592 15.4666 238.818 15.009 236.573 15.009H230.338V27.4556Z" fill="white"/>
<path d="M136.134 64.063L159.459 0H181.412L204.646 64.063H183.79L180.223 52.6232H160.008L156.44 64.063H136.134ZM163.941 37.3396H176.198L170.161 19.0359L163.941 37.3396Z" fill="white"/>
<path d="M59.6143 64.063V0H77.1352L99.9848 38.9869L92.6693 39.0784L114.164 0H131.685V64.063H114.074L114.435 23.2457L117.596 24.4355L101.52 53.1723H89.7793L72.8002 24.4355L75.9612 23.2457L76.3224 64.063H59.6143Z" fill="white"/>
<path d="M25.7258 64.063C20.8833 64.063 16.1705 63.316 11.5874 61.8221C7.03315 60.3282 3.17068 58.1752 0 55.3631L8.08524 42.2693C9.26705 43.6753 10.8524 44.9056 12.8413 45.9601C14.8302 47.0147 16.9632 47.8349 19.2403 48.4207C21.5174 49.0066 23.6792 49.2995 25.7258 49.2995C28.0317 49.2995 29.9341 48.9626 31.433 48.2889C32.9319 47.6152 33.6813 46.6632 33.6813 45.4329C33.6813 44.2319 33.1048 43.2506 31.9519 42.489C30.7989 41.6981 28.6659 40.8925 25.5528 40.0723L21.0562 38.842C14.4843 37.0259 9.78588 34.5067 6.96109 31.2845C4.1363 28.0331 2.72391 24.1957 2.72391 19.7725C2.72391 16.9897 3.31481 14.3973 4.49661 11.9953C5.70723 9.59334 7.37905 7.49891 9.51205 5.71206C11.6739 3.89592 14.2104 2.48988 17.1217 1.49393C20.033 0.497974 23.1892 0 26.5905 0C31.4907 0 36.0449 0.732316 40.2533 2.19695C44.4905 3.63229 47.8629 5.62418 50.3706 8.17264L41.9827 20.9149C40.9739 19.7139 39.6768 18.6594 38.0914 17.7513C36.5061 16.814 34.7622 16.0817 32.8598 15.5544C30.9574 15.0271 29.0406 14.7635 27.1094 14.7635C25.5817 14.7635 24.2557 14.9539 23.1316 15.3347C22.0074 15.6862 21.1283 16.1842 20.4942 16.8286C19.8888 17.4438 19.5862 18.1614 19.5862 18.9816C19.5862 19.7139 19.8456 20.3144 20.3644 20.7831C20.8833 21.2518 21.7336 21.7058 22.9154 22.1452C24.126 22.5846 25.7546 23.1119 27.8011 23.727L32.2113 25.0452C38.7832 27.0078 43.5104 29.4245 46.3929 32.2951C49.2753 35.1658 50.7165 38.8713 50.7165 43.4117C50.7165 47.4834 49.6789 51.0717 47.6035 54.1767C45.5281 57.2817 42.6169 59.713 38.8697 61.4706C35.1225 63.1989 30.7412 64.063 25.7258 64.063Z" fill="white"/>
<path d="M394.281 9.7874C389.552 14.2339 386.332 19.899 385.028 26.0664C383.723 32.2338 384.393 38.6265 386.952 44.4361C389.511 50.2457 393.844 55.2112 399.405 58.7048C404.965 62.1983 411.502 64.063 418.189 64.063C424.876 64.063 431.413 62.1983 436.973 58.7047C442.534 55.2112 446.867 50.2457 449.426 44.4361C451.985 38.6265 452.655 32.2338 451.35 26.0664C450.046 19.899 446.826 14.2339 442.097 9.78739L430.215 20.9608C432.593 23.1974 434.213 26.0469 434.869 29.1491C435.525 32.2513 435.189 35.4669 433.901 38.3891C432.614 41.3113 430.434 43.809 427.638 45.5662C424.841 47.3235 421.553 48.2614 418.189 48.2614C414.825 48.2614 411.537 47.3235 408.74 45.5662C405.944 43.809 403.764 41.3113 402.477 38.3891C401.189 35.4669 400.853 32.2513 401.509 29.1491C402.165 26.0469 403.785 23.1974 406.163 20.9608L394.281 9.7874Z" fill="white"/>
<path fill-rule="evenodd" clip-rule="evenodd" d="M433.409 10.6744C429.457 6.72306 423.999 4.27914 417.969 4.27914C411.94 4.27914 406.481 6.72306 402.53 10.6743L399.504 7.64845C404.401 2.75115 411.043 -0.000126504 417.969 -0.000124463C424.895 -0.000122423 431.537 2.75116 436.435 7.64846L433.409 10.6744ZM430.279 13.8035C427.129 10.6531 422.777 8.7045 417.969 8.7045C413.162 8.7045 408.81 10.6531 405.659 13.8036L408.685 16.8295C411.061 14.4534 414.344 12.9838 417.969 12.9838C421.595 12.9838 424.878 14.4534 427.254 16.8294L430.279 13.8035ZM424.124 19.9586C422.549 18.3834 420.373 17.4091 417.969 17.4091C415.566 17.4091 413.389 18.3835 411.814 19.9587L417.969 26.1138L424.124 19.9586Z" fill="white"/>
</svg>
