<svg width="551" height="78" viewBox="0 0 551 78" fill="none" xmlns="http://www.w3.org/2000/svg">
<path d="M394.334 78V0H419.928V29.25L432.725 0H462.584L441.256 39L462.584 78H436.99L419.928 48.75V78H394.334Z" fill="white"/>
<path d="M340.168 78H360.968V57.0255L379.168 33.5833H360.968L340.168 57.0255L340.168 78Z" fill="white"/>
<path d="M340.169 33.5833H360.752V9.74998H340.169V33.5833Z" fill="white"/>
<path d="M321.75 19.5V0H384.583V19.5H321.75Z" fill="white"/>
<path d="M260 78V0H290.065C295.599 0 300.424 0.947144 304.541 2.84143C308.691 4.73572 311.897 7.50286 314.158 11.1429C316.452 14.7457 317.6 19.1286 317.6 24.2914C317.6 28.08 316.992 31.4043 315.777 34.2643C314.563 37.1243 312.943 39.5386 310.918 41.5071C308.894 43.4757 306.667 45.0171 304.237 46.1314L321.75 78H297.657L284.396 51.1457H280.448V78H260ZM280.448 33.4286H287.939C290.74 33.4286 292.933 32.8714 294.519 31.7571C296.139 30.6429 296.949 28.6743 296.949 25.8514C296.949 22.9914 296.139 21.0229 294.519 19.9457C292.933 18.8314 290.774 18.2743 288.041 18.2743H280.448V33.4286Z" fill="white"/>
<path d="M165.75 78L194.15 0H220.878L249.167 78H223.774L219.431 64.0714H194.818L190.474 78H165.75ZM199.607 45.4629H214.53L207.18 23.1771L199.607 45.4629Z" fill="white"/>
<path d="M72.584 78V0H93.9167L121.737 47.4686L112.83 47.58L139.001 0H160.334V78H138.891L139.331 28.3029L143.18 29.7514L123.607 64.74H109.311L88.6385 29.7514L92.4872 28.3029L92.927 78H72.584Z" fill="white"/>
<path d="M31.3225 78C25.4265 78 19.6884 77.0905 14.1083 75.2716C8.56323 73.4527 3.86047 70.8313 0 67.4074L9.8442 51.465C11.2831 53.177 13.2133 54.6749 15.6349 55.9588C18.0565 57.2428 20.6535 58.2414 23.426 58.9547C26.1986 59.668 28.8307 60.0247 31.3225 60.0247C34.1301 60.0247 36.4464 59.6145 38.2713 58.7942C40.0963 57.9739 41.0087 56.8148 41.0087 55.3169C41.0087 53.8546 40.3068 52.6598 38.903 51.7325C37.4992 50.7695 34.9022 49.7888 31.1119 48.7901L25.637 47.2922C17.6353 45.0809 11.9148 42.0137 8.47549 38.0905C5.03616 34.1317 3.3165 29.4595 3.3165 24.0741C3.3165 20.6859 4.03595 17.5295 5.47485 14.6049C6.94885 11.6804 8.98437 9.13031 11.5814 6.95473C14.2136 4.74349 17.3019 3.03155 20.8465 1.81893C24.3912 0.606309 28.2341 0 32.3753 0C38.3415 0 43.8865 0.891632 49.0104 2.6749C54.1694 4.4225 58.2756 6.84773 61.3289 9.95061L51.1162 25.465C49.8878 24.0027 48.3085 22.7188 46.3783 21.6132C44.4481 20.4719 42.3248 19.5803 40.0085 18.9383C37.6922 18.2963 35.3584 17.9753 33.007 17.9753C31.147 17.9753 29.5326 18.2071 28.1639 18.6708C26.7952 19.0988 25.7248 19.7051 24.9527 20.4897C24.2157 21.2387 23.8472 22.1125 23.8472 23.1111C23.8472 24.0027 24.163 24.7339 24.7948 25.3045C25.4265 25.8752 26.4618 26.428 27.9007 26.963C29.3747 27.4979 31.3576 28.1399 33.8493 28.8889L39.2189 30.4938C47.2206 32.8834 52.9762 35.8258 56.4857 39.321C59.9952 42.8162 61.75 47.3278 61.75 52.856C61.75 57.8134 60.4866 62.1824 57.9597 65.963C55.4329 69.7435 51.8883 72.7037 47.3259 74.8436C42.7635 76.9479 37.429 78 31.3225 78Z" fill="white"/>
<path d="M480.057 11.9167C474.3 17.3305 470.379 24.2281 468.791 31.7372C467.203 39.2463 468.018 47.0298 471.134 54.1032C474.249 61.1767 479.526 67.2225 486.296 71.4761C493.066 75.7297 501.025 78 509.167 78C517.309 78 525.268 75.7297 532.038 71.4761C538.807 67.2225 544.084 61.1767 547.2 54.1032C550.316 47.0298 551.131 39.2463 549.542 31.7372C547.954 24.228 544.033 17.3305 538.276 11.9167L523.809 25.5209C526.705 28.244 528.677 31.7135 529.476 35.4906C530.275 39.2677 529.865 43.1827 528.297 46.7407C526.73 50.2986 524.076 53.3397 520.671 55.4792C517.266 57.6188 513.262 58.7608 509.167 58.7608C505.071 58.7608 501.068 57.6188 497.663 55.4792C494.257 53.3397 491.603 50.2986 490.036 46.7407C488.469 43.1827 488.059 39.2677 488.858 35.4906C489.657 31.7135 491.629 28.244 494.525 25.5209L480.057 11.9167Z" fill="white"/>
<path fill-rule="evenodd" clip-rule="evenodd" d="M527.697 12.9968C522.886 8.18586 516.24 5.21025 508.898 5.21025C501.557 5.21025 494.911 8.18585 490.1 12.9968L486.416 9.31256C492.379 3.34985 500.466 2.55567e-05 508.898 2.80411e-05C517.331 3.05255e-05 525.418 3.34985 531.381 9.31257L527.697 12.9968ZM523.887 16.8067C520.051 12.9709 514.752 10.5984 508.899 10.5984C503.045 10.5984 497.746 12.9709 493.91 16.8068L497.594 20.491C500.487 17.598 504.484 15.8086 508.899 15.8086C513.313 15.8086 517.31 17.5979 520.203 20.4909L523.887 16.8067ZM516.393 24.3008C514.475 22.3829 511.825 21.1967 508.899 21.1967C505.972 21.1967 503.322 22.383 501.404 24.301L508.898 31.795L516.393 24.3008Z" fill="white"/>
</svg>
