<svg width="56" height="28" viewBox="0 0 56 28" fill="none" xmlns="http://www.w3.org/2000/svg">
<path d="M14 28C10.1267 28 6.82547 26.6345 4.0964 23.9036C1.36734 21.1727 0.00186858 17.8715 1.91126e-06 14C-0.00186476 10.1285 1.3636 6.82733 4.0964 4.0964C6.8292 1.36547 10.1304 0 14 0C16.3333 0 18.4455 0.513334 20.3364 1.54C22.2273 2.56667 23.8485 3.92 25.2 5.6H47.6C49.9333 5.6 51.9167 6.41667 53.55 8.05C55.1833 9.68333 56 11.6667 56 14C56 16.3333 55.1833 18.3167 53.55 19.95C51.9167 21.5833 49.9333 22.4 47.6 22.4H25.2C23.8467 24.08 22.2255 25.4333 20.3364 26.46C18.4473 27.4867 16.3352 28 14 28ZM27.72 16.8H47.6C48.3933 16.8 49.0588 16.5312 49.5964 15.9936C50.134 15.456 50.4019 14.7915 50.4 14C50.3981 13.2085 50.1293 12.544 49.5936 12.0064C49.0579 11.4688 48.3933 11.2 47.6 11.2H27.72C27.8133 11.62 27.8833 12.0867 27.93 12.6C27.9767 13.1133 28 13.58 28 14C28 14.42 27.9767 14.8867 27.93 15.4C27.8833 15.9133 27.8133 16.38 27.72 16.8Z" fill="#959191"/>
</svg>
